<?xml version="1.0" standalone="no"?>
<!DOCTYPE svg PUBLIC "-//W3C//DTD SVG 20010904//EN"
 "http://www.w3.org/TR/2001/REC-SVG-20010904/DTD/svg10.dtd">
<svg version="1.0" xmlns="http://www.w3.org/2000/svg"
 width="200.000000pt" height="200.000000pt" viewBox="0 0 200.000000 200.000000"
 preserveAspectRatio="xMidYMid meet">

<g transform="translate(0.000000,200.000000) scale(0.100000,-0.100000)"
fill="current" stroke="current">
<path d="M443 1619 c-57 -17 -68 -47 -68 -187 l0 -124 33 -29 c32 -29 33 -29
158 -29 125 0 126 0 155 29 29 29 29 30 29 155 0 124 0 126 -28 158 -29 31
-30 31 -138 34 -60 2 -124 -1 -141 -7z"/>
<path d="M889 1624 c-15 -3 -37 -16 -50 -30 -22 -23 -24 -36 -27 -141 -6 -186
10 -203 188 -203 178 0 194 17 188 204 -3 110 -4 117 -30 143 -26 25 -32 27
-135 29 -59 1 -120 0 -134 -2z"/>
<path d="M1328 1623 c-15 -2 -39 -18 -53 -34 -24 -29 -25 -36 -25 -156 0 -124
0 -125 29 -154 29 -29 30 -29 155 -29 124 0 126 0 157 28 31 28 32 31 37 128
9 189 -14 218 -172 220 -56 1 -113 0 -128 -3z"/>
<path d="M435 1181 c-11 -5 -29 -19 -40 -31 -18 -20 -20 -36 -20 -151 0 -127
0 -129 28 -156 26 -27 32 -28 143 -31 187 -6 204 10 204 188 0 123 -11 158
-55 178 -29 14 -228 15 -260 3z"/>
<path d="M875 1181 c-11 -5 -29 -19 -40 -31 -18 -20 -20 -36 -20 -151 0 -127
0 -129 28 -156 27 -28 29 -28 157 -28 128 0 130 0 157 28 28 27 28 29 28 157
0 128 0 130 -28 157 -26 27 -31 28 -145 30 -64 2 -126 -1 -137 -6z"/>
<path d="M1301 1176 c-42 -23 -50 -53 -51 -174 0 -180 17 -196 204 -190 111 3
117 4 143 31 28 27 28 29 28 157 0 128 0 130 -28 157 -27 27 -31 28 -150 31
-89 1 -128 -2 -146 -12z"/>
<path d="M409 722 c-31 -28 -32 -31 -37 -128 -5 -119 8 -177 45 -202 22 -14
50 -17 151 -17 l124 0 29 33 c29 32 29 33 29 158 0 125 0 126 -29 155 -29 29
-30 29 -155 29 -124 0 -126 0 -157 -28z"/>
<path d="M859 735 c-42 -23 -51 -60 -47 -189 3 -111 4 -117 31 -143 27 -28 29
-28 157 -28 128 0 130 0 157 28 27 26 28 32 31 143 6 188 -10 204 -190 204
-78 -1 -121 -5 -139 -15z"/>
<path d="M1279 721 c-29 -29 -29 -30 -29 -155 0 -125 0 -126 29 -158 l29 -33
124 0 c101 0 129 3 151 17 37 25 50 83 45 202 -5 97 -6 100 -37 128 -31 28
-33 28 -157 28 -125 0 -126 0 -155 -29z"/>
</g>
</svg>
