<svg width="16" height="16" viewBox="0 0 16 16" fill="none" xmlns="http://www.w3.org/2000/svg">
<path fill-rule="evenodd" clip-rule="evenodd" d="M8.0002 7.27856L14.7648 0.514724C15.0322 0.247375 15.4071 0.188761 15.6021 0.383806C15.7971 0.578852 15.7384 0.953698 15.471 1.22105L8.70645 7.98481L15.7131 14.9915C15.9829 15.2613 16.0433 15.6382 15.848 15.8335C15.6528 16.0288 15.2758 15.9684 15.006 15.6986L7.9993 8.69187L0.970408 15.7199C0.703027 15.9873 0.32819 16.0459 0.133188 15.8508C-0.0618146 15.6558 -0.00314008 15.281 0.264242 15.0136L7.29305 7.98563L0.42662 1.1192C0.156838 0.849413 0.0964276 0.47242 0.29169 0.277158C0.486952 0.0818961 0.863945 0.142307 1.13373 0.412089L8.0002 7.27856Z" fill="#676879"/>
</svg>
