<svg width="16" height="16" viewBox="0 0 16 16" fill="none" xmlns="http://www.w3.org/2000/svg">
<path fill-rule="evenodd" clip-rule="evenodd" d="M7.50061 8L7.50122 0.500719C7.50124 0.224157 7.72512 -2.25398e-05 8.00126 1.69978e-09C8.2774 2.25466e-05 8.50124 0.224239 8.50122 0.500801L8.50061 8H15.4976C15.7751 8 16 8.22386 16 8.5C16 8.77614 15.7751 9 15.4976 9H8.50053L8.5 15.4993C8.49998 15.7758 8.2761 16 7.99996 16C7.72382 16 7.49998 15.7758 7.5 15.4992L7.50053 9H0.502415C0.224939 9 0 8.77614 0 8.5C0 8.22386 0.224939 8 0.502415 8H7.50061Z" fill="#676879"/>
</svg>
