<?xml version="1.0" standalone="no"?>
<!DOCTYPE svg PUBLIC "-//W3C//DTD SVG 20010904//EN"
 "http://www.w3.org/TR/2001/REC-SVG-20010904/DTD/svg10.dtd">
<svg version="1.0" xmlns="http://www.w3.org/2000/svg"
 width="980.000000pt" height="926.000000pt" viewBox="0 0 980.000000 926.000000"
 preserveAspectRatio="xMidYMid meet">

<g transform="translate(0.000000,926.000000) scale(0.100000,-0.100000)"
fill="#000000" stroke="none">
<path d="M2855 9249 c-145 -21 -332 -99 -472 -198 -100 -71 -231 -204 -296
-303 -30 -46 -80 -133 -111 -195 l-55 -111 -14 -1361 -13 -1361 -845 -847
c-972 -976 -1049 -1059 -1049 -1130 0 -65 72 -151 476 -567 357 -369 2809
-2814 3010 -3003 131 -122 158 -144 204 -157 30 -9 61 -16 70 -16 49 0 386
327 2554 2485 1751 1743 1891 1880 1925 1883 85 7 269 32 302 42 54 15 89 55
89 100 0 75 -103 183 -1830 1914 -1659 1663 -1737 1739 -2042 1984 -33 26 -49
32 -89 32 -36 0 -49 -4 -49 -14 0 -8 -9 -17 -19 -21 -23 -7 -157 -139 -326
-320 l-120 -128 -7 139 c-13 256 -41 381 -124 545 -213 425 -695 676 -1169
608z m313 -465 c244 -49 448 -245 507 -486 12 -46 19 -164 27 -431 l11 -369
-34 -26 c-38 -30 -381 -342 -453 -412 -25 -25 -230 -232 -456 -460 l-410 -415
0 925 c0 1125 6 1232 77 1362 32 59 168 190 245 236 139 83 316 111 486 76z"/>
<path d="M8584 3666 c-43 -19 -91 -77 -209 -256 -235 -355 -558 -925 -659
-1163 -195 -458 -209 -734 -57 -1053 65 -136 138 -240 236 -339 319 -319 812
-411 1234 -231 257 110 484 343 587 600 120 298 111 589 -28 916 -186 438
-678 1296 -836 1458 -72 74 -187 103 -268 68z"/>
</g>
</svg>
