<?xml version="1.0" standalone="no"?>
<!DOCTYPE svg PUBLIC "-//W3C//DTD SVG 20010904//EN"
 "http://www.w3.org/TR/2001/REC-SVG-20010904/DTD/svg10.dtd">
<svg version="1.0" xmlns="http://www.w3.org/2000/svg"
 width="1200.000000pt" height="1200.000000pt" viewBox="0 0 1200.000000 1200.000000"
 preserveAspectRatio="xMidYMid meet">

<g transform="translate(0.000000,1200.000000) scale(0.100000,-0.100000)"
fill="#000000" stroke="none">
<path d="M5664 11990 c-649 -40 -1241 -168 -1829 -395 -1393 -536 -2550 -1595
-3215 -2940 -823 -1667 -825 -3634 -5 -5300 529 -1074 1369 -1968 2410 -2564
1104 -632 2382 -894 3660 -750 2019 227 3798 1482 4700 3314 655 1331 791
2870 380 4303 -584 2037 -2219 3627 -4271 4152 -321 83 -660 140 -1009 170
-163 14 -660 20 -821 10z m856 -1234 c744 -89 1396 -314 2007 -695 1217 -757
2041 -2040 2217 -3451 37 -295 47 -691 26 -966 -74 -937 -393 -1781 -957
-2530 -46 -62 -90 -118 -99 -125 -13 -11 -479 451 -3375 3347 -1847 1847
-3359 3362 -3359 3366 0 12 141 120 295 228 691 482 1481 764 2350 840 159 14
738 5 895 -14z m-856 -5095 c2896 -2896 3358 -3362 3347 -3375 -39 -47 -366
-278 -551 -388 -612 -367 -1254 -579 -1995 -660 -161 -18 -769 -18 -930 0
-377 41 -692 108 -1030 219 -1275 416 -2334 1375 -2879 2606 -205 462 -330
938 -388 1472 -17 161 -17 769 0 930 83 764 312 1437 701 2063 117 187 339
492 359 492 4 0 1519 -1512 3366 -3359z"/>
</g>
</svg>
